<?xml version="1.0" standalone="no"?><svg xmlns="http://www.w3.org/2000/svg" viewBox="0 0 1440 320"><path fill="#0099ff" fill-opacity="1" d="M0,192L14.1,170.7C28.2,149,56,107,85,80C112.9,53,141,43,169,48C197.6,53,226,75,254,69.3C282.4,64,311,32,339,32C367.1,32,395,64,424,85.3C451.8,107,480,117,508,101.3C536.5,85,565,43,593,37.3C621.2,32,649,64,678,85.3C705.9,107,734,117,762,122.7C790.6,128,819,128,847,144C875.3,160,904,192,932,202.7C960,213,988,203,1016,181.3C1044.7,160,1073,128,1101,101.3C1129.4,75,1158,53,1186,37.3C1214.1,21,1242,11,1271,48C1298.8,85,1327,171,1355,192C1383.5,213,1412,171,1426,149.3L1440,128L1440,0L1425.9,0C1411.8,0,1384,0,1355,0C1327.1,0,1299,0,1271,0C1242.4,0,1214,0,1186,0C1157.6,0,1129,0,1101,0C1072.9,0,1045,0,1016,0C988.2,0,960,0,932,0C903.5,0,875,0,847,0C818.8,0,791,0,762,0C734.1,0,706,0,678,0C649.4,0,621,0,593,0C564.7,0,536,0,508,0C480,0,452,0,424,0C395.3,0,367,0,339,0C310.6,0,282,0,254,0C225.9,0,198,0,169,0C141.2,0,113,0,85,0C56.5,0,28,0,14,0L0,0Z"></path></svg>